<?xml version="1.0" encoding="UTF-8" standalone="no"?>
<!-- Generator: Adobe Illustrator 18.0.0, SVG Export Plug-In . SVG Version: 6.00 Build 0)  -->

<svg
   xmlns:dc="http://purl.org/dc/elements/1.1/"
   xmlns:cc="http://creativecommons.org/ns#"
   xmlns:rdf="http://www.w3.org/1999/02/22-rdf-syntax-ns#"
   xmlns:svg="http://www.w3.org/2000/svg"
   xmlns="http://www.w3.org/2000/svg"
   xmlns:sodipodi="http://sodipodi.sourceforge.net/DTD/sodipodi-0.dtd"
   xmlns:inkscape="http://www.inkscape.org/namespaces/inkscape"
   version="1.1"
   id="Capa_1"
   x="0px"
   y="0px"
   viewBox="0 0 58 58"
   style="enable-background:new 0 0 58 58;"
   xml:space="preserve"
   width="512px"
   height="512px"
   inkscape:version="0.92.0 r"
   sodipodi:docname="file.svg"
   inkscape:export-filename="/home/mrombout/Projects/java/Spiner/FrontEnd/src/main/resources/file.png"
   inkscape:export-xdpi="28.125"
   inkscape:export-ydpi="28.125"><metadata
     id="metadata53"><rdf:RDF><cc:Work
         rdf:about=""><dc:format>image/svg+xml</dc:format><dc:type
           rdf:resource="http://purl.org/dc/dcmitype/StillImage" /></cc:Work></rdf:RDF></metadata><defs
     id="defs51" /><sodipodi:namedview
     pagecolor="#ffffff"
     bordercolor="#666666"
     borderopacity="1"
     objecttolerance="10"
     gridtolerance="10"
     guidetolerance="10"
     inkscape:pageopacity="0"
     inkscape:pageshadow="2"
     inkscape:window-width="1600"
     inkscape:window-height="852"
     id="namedview49"
     showgrid="false"
     inkscape:zoom="0.4609375"
     inkscape:cx="-419.79661"
     inkscape:cy="251.66102"
     inkscape:window-x="0"
     inkscape:window-y="0"
     inkscape:window-maximized="1"
     inkscape:current-layer="g3" /><g
     id="g3"><path
       d="M50.949,12.187l-1.361-1.361l-9.504-9.505c-0.001-0.001-0.001-0.001-0.001-0.001l-0.771-0.771   C38.957,0.195,38.486,0,37.985,0H8.963C7.776,0,6.5,0.916,6.5,2.926V39v16.537V56c0,0.837,0.841,1.652,1.836,1.909   c0.051,0.014,0.1,0.033,0.152,0.043C8.644,57.983,8.803,58,8.963,58h40.074c0.16,0,0.319-0.017,0.475-0.048   c0.052-0.01,0.101-0.029,0.152-0.043C50.659,57.652,51.5,56.837,51.5,56v-0.463V39V13.978C51.5,13.211,51.407,12.644,50.949,12.187   z M39.5,3.565L47.935,12H39.5V3.565z M8.963,56c-0.071,0-0.135-0.025-0.198-0.049C8.61,55.877,8.5,55.721,8.5,55.537V41h41v14.537   c0,0.184-0.11,0.34-0.265,0.414C49.172,55.975,49.108,56,49.037,56H8.963z M8.5,39V2.926C8.5,2.709,8.533,2,8.963,2h28.595   C37.525,2.126,37.5,2.256,37.5,2.391V14h11.608c0.135,0,0.265-0.025,0.391-0.058c0,0.015,0.001,0.021,0.001,0.036V39H8.5z"
       fill="#bbbbbb"
       id="path5"
       style="fill:#aaaaaa;fill-opacity:1" /><polygon
       points="16.814,48.34 12.453,48.34 12.453,43.924 10.785,43.924 10.785,54 12.453,54 12.453,49.461 16.814,49.461    16.814,54 18.455,54 18.455,43.924 16.814,43.924  "
       fill="#bbbbbb"
       id="polygon7"
       style="fill:#aaaaaa;fill-opacity:1" /><polygon
       points="20.438,45.045 23.445,45.045 23.445,54 25.1,54 25.1,45.045 28.107,45.045 28.107,43.924 20.438,43.924  "
       fill="#bbbbbb"
       id="polygon9"
       style="fill:#aaaaaa;fill-opacity:1" /><polygon
       points="34.725,50.814 31.73,43.924 30.063,43.924 30.063,54 31.73,54 31.73,47.068 34,52.674 35.449,52.674    37.705,47.068 37.705,54 39.373,54 39.373,43.924 37.705,43.924  "
       fill="#bbbbbb"
       id="polygon11"
       style="fill:#aaaaaa;fill-opacity:1" /><polygon
       points="43.57,43.924 41.902,43.924 41.902,54 48.205,54 48.205,52.756 43.57,52.756  "
       fill="#bbbbbb"
       id="polygon13"
       style="fill:#aaaaaa;fill-opacity:1" /><path
       d="M24.207,17.293c-0.391-0.391-1.023-0.391-1.414,0l-6,6c-0.391,0.391-0.391,1.023,0,1.414l6,6   C22.988,30.902,23.244,31,23.5,31s0.512-0.098,0.707-0.293c0.391-0.391,0.391-1.023,0-1.414L18.914,24l5.293-5.293   C24.598,18.316,24.598,17.684,24.207,17.293z"
       fill="#bbbbbb"
       id="path15"
       style="fill:#aaaaaa;fill-opacity:1" /><path
       d="M36.207,17.293c-0.391-0.391-1.023-0.391-1.414,0s-0.391,1.023,0,1.414L40.086,24l-5.293,5.293   c-0.391,0.391-0.391,1.023,0,1.414C34.988,30.902,35.244,31,35.5,31s0.512-0.098,0.707-0.293l6-6c0.391-0.391,0.391-1.023,0-1.414   L36.207,17.293z"
       fill="#bbbbbb"
       id="path17"
       style="fill:#aaaaaa;fill-opacity:1" /></g><g
     id="g19" /><g
     id="g21" /><g
     id="g23" /><g
     id="g25" /><g
     id="g27" /><g
     id="g29" /><g
     id="g31" /><g
     id="g33" /><g
     id="g35" /><g
     id="g37" /><g
     id="g39" /><g
     id="g41" /><g
     id="g43" /><g
     id="g45" /><g
     id="g47" /></svg>