<?xml version="1.0" encoding="UTF-8" standalone="no"?>
<!-- Generator: Adobe Illustrator 18.1.1, SVG Export Plug-In . SVG Version: 6.00 Build 0)  -->

<svg
   xmlns:dc="http://purl.org/dc/elements/1.1/"
   xmlns:cc="http://creativecommons.org/ns#"
   xmlns:rdf="http://www.w3.org/1999/02/22-rdf-syntax-ns#"
   xmlns:svg="http://www.w3.org/2000/svg"
   xmlns="http://www.w3.org/2000/svg"
   xmlns:sodipodi="http://sodipodi.sourceforge.net/DTD/sodipodi-0.dtd"
   xmlns:inkscape="http://www.inkscape.org/namespaces/inkscape"
   version="1.1"
   id="Capa_1"
   x="0px"
   y="0px"
   viewBox="0 0 268 268"
   style="enable-background:new 0 0 268 268;"
   xml:space="preserve"
   width="512px"
   height="512px"
   inkscape:version="0.91 r13725"
   sodipodi:docname="progress.svg"
   inkscape:export-filename="P:\Programming\Java\TurnToPassage.Transformer\FrontEnd\src\main\resources\progress.png"
   inkscape:export-xdpi="90"
   inkscape:export-ydpi="90"><metadata
   id="metadata40"><rdf:RDF><cc:Work
       rdf:about=""><dc:format>image/svg+xml</dc:format><dc:type
         rdf:resource="http://purl.org/dc/dcmitype/StillImage" /></cc:Work></rdf:RDF></metadata><defs
   id="defs38" /><sodipodi:namedview
   pagecolor="#ffffff"
   bordercolor="#666666"
   borderopacity="1"
   objecttolerance="10"
   gridtolerance="10"
   guidetolerance="10"
   inkscape:pageopacity="0"
   inkscape:pageshadow="2"
   inkscape:window-width="1680"
   inkscape:window-height="1027"
   id="namedview36"
   showgrid="false"
   inkscape:zoom="0.4609375"
   inkscape:cx="-74.847458"
   inkscape:cy="251.66102"
   inkscape:window-x="1912"
   inkscape:window-y="28"
   inkscape:window-maximized="1"
   inkscape:current-layer="g3" />
<g
   id="g3">
	<path
   id="path25689"
   d="M142.5,0c-22.032,0-40,17.968-40,40s17.968,40,40,40s40-17.968,40-40S164.532,0,142.5,0z M142.5,10   c16.628,0,30,13.372,30,30s-13.372,30-30,30s-30-13.372-30-30S125.872,10,142.5,10z M142.5,20c-11.016,0-20,8.984-20,20   c-0.048,3.381,5.048,3.381,5,0c0-8.314,6.686-15,15-15C145.881,25.048,145.881,19.952,142.5,20z M70.936,44.936   c-17.614,0-32,14.386-32,32c0,17.614,14.386,32,32,32s32-14.386,32-32C102.936,59.322,88.549,44.936,70.936,44.936z M70.936,54.936   c12.209,0,22,9.791,22,22s-9.791,22-22,22s-22-9.791-22-22S58.726,54.936,70.936,54.936z M213.064,65.936c-6.016,0-11,4.984-11,11   s4.984,11,11,11s11-4.984,11-11S219.08,65.936,213.064,65.936z M42,119.5c-15.957,0-29,13.043-29,29s13.043,29,29,29   s29-13.043,29-29S57.957,119.5,42,119.5z M42,129.5c10.553,0,19,8.447,19,19s-8.447,19-19,19s-19-8.447-19-19   S31.447,129.5,42,129.5z M242,135.5c-7.12,0-13,5.88-13,13s5.88,13,13,13s13-5.88,13-13S249.12,135.5,242,135.5z M242,145.5   c1.716,0,3,1.284,3,3s-1.284,3-3,3s-3-1.284-3-3S240.284,145.5,242,145.5z M70.936,194.062c-13.748,0-25,11.252-25,25   s11.252,25,25,25s25-11.252,25-25S84.683,194.062,70.936,194.062z M213.064,203.062c-8.777,0-16,7.223-16,16s7.223,16,16,16   c8.777,0,16-7.223,16-16S221.842,203.062,213.064,203.062z M70.936,204.062c8.343,0,15,6.657,15,15s-6.657,15-15,15   s-15-6.657-15-15S62.592,204.062,70.936,204.062z M213.064,213.062c3.373,0,6,2.627,6,6s-2.627,6-6,6s-6-2.627-6-6   S209.692,213.062,213.064,213.062z M142.5,228c-10.986,0-20,9.014-20,20c0,10.986,9.014,20,20,20s20-9.014,20-20   C162.5,237.014,153.486,228,142.5,228z M142.5,238c5.582,0,10,4.418,10,10s-4.418,10-10,10s-10-4.418-10-10S136.918,238,142.5,238z   "
   fill="#bbbbbb"
   style="fill:#0e7afe;fill-opacity:1" />
</g>
<g
   id="g6">
</g>
<g
   id="g8">
</g>
<g
   id="g10">
</g>
<g
   id="g12">
</g>
<g
   id="g14">
</g>
<g
   id="g16">
</g>
<g
   id="g18">
</g>
<g
   id="g20">
</g>
<g
   id="g22">
</g>
<g
   id="g24">
</g>
<g
   id="g26">
</g>
<g
   id="g28">
</g>
<g
   id="g30">
</g>
<g
   id="g32">
</g>
<g
   id="g34">
</g>
</svg>